<?xml version="1.0" encoding="UTF-8" standalone="no"?><!DOCTYPE svg PUBLIC "-//W3C//DTD SVG 1.1//EN" "http://www.w3.org/Graphics/SVG/1.1/DTD/svg11.dtd"><svg width="100%" height="100%" viewBox="0 0 2197 618" version="1.1" xmlns="http://www.w3.org/2000/svg" xmlns:xlink="http://www.w3.org/1999/xlink" xml:space="preserve" xmlns:serif="http://www.serif.com/" style="fill-rule:evenodd;clip-rule:evenodd;stroke-linejoin:round;stroke-miterlimit:2;"><rect id="Artboard1" x="0" y="0" width="2196.06" height="617.337" style="fill:none;"/><g><path d="M68.041,106.074l0,434.655l227.905,-0l30.691,-13.025l-0,-16.774l22.942,0l33.993,-12.393l0,-40.512l61.466,-14.878l0,-233.201l-35.14,-15.711l0,-32.621l-56.976,-25.128l-26.285,-0l-0,-35.463l-30.691,-22.286l-227.905,27.337Zm140.381,72.921l-0,264.152l55.729,-0l-0,-17.916l48.842,-0l0,-246.236l-104.571,0Z" style="fill:#1200b5;"/><path d="M457.511,194.235l-0,288.745l56.976,-2.859l0,57.749l170.929,2.859l42.682,-12.446l0.465,-16.429l54.118,-17.076l-0,-69.547l-151.383,-0l0,31.124l-93.574,0l0,-88.873l244.957,-0l-0,-156.395l-39.8,-15.629l-14.783,0l0.465,-36.098l-43.147,-22.874l-170.929,-0l0,57.749l-56.976,-0Zm80.213,57.749l0,57.749l147.692,-0l-0,-57.749l-147.692,-0Z" style="fill:#1200b5;"/></g><g><path d="M941.189,112.894l69.537,0l0,367.69l185.232,-0l-7.493,60.145l-247.276,-0l0,-427.835Z" style="fill:#4d2dff;fill-rule:nonzero;"/><path d="M1354.41,53.059c12.988,0 23.579,4.134 31.771,12.401c8.193,8.268 12.289,18.602 12.289,31.003c-0,12.607 -4.096,23.097 -12.289,31.467c-8.192,8.371 -18.783,12.556 -31.771,12.556c-12.789,0 -23.279,-4.185 -31.472,-12.556c-8.192,-8.37 -12.288,-18.86 -12.288,-31.467c-0,-12.401 4.096,-22.735 12.288,-31.003c8.193,-8.267 18.683,-12.401 31.472,-12.401Zm46.758,436.826l86.022,-0l-0,50.844l-247.876,-0l0,-50.844l94.714,-0l0,-225.699l-91.717,0l0,-50.844l158.857,0l-0,276.543Z" style="fill:#4d2dff;fill-rule:nonzero;"/><path d="M1533.54,213.342l57.847,0l5.096,42.474c12.988,-16.328 28.474,-28.936 46.457,-37.823c17.984,-8.888 36.567,-13.332 55.75,-13.332c29.174,0 51.204,8.423 66.09,25.268c14.887,16.844 22.33,40.871 22.33,72.08l-0,238.72l-67.139,-0l-0,-204.307c-0,-20.255 -1.149,-35.859 -3.447,-46.814c-2.298,-10.954 -6.694,-19.015 -13.188,-24.182c-6.494,-5.167 -16.036,-7.75 -28.624,-7.75c-14.387,-0 -27.925,4.547 -40.614,13.641c-12.688,9.094 -23.828,20.565 -33.419,34.413l-0,234.999l-67.139,-0l-0,-327.387Z" style="fill:#4d2dff;fill-rule:nonzero;"/><path d="M1908.1,540.729l-67.139,-0l0,-458.837l67.139,-7.751l0,466.588Zm81.526,-181.055l141.472,181.055l-82.125,-0l-136.077,-179.195l126.485,-148.192l78.229,0l-127.984,146.332Z" style="fill:#4d2dff;fill-rule:nonzero;"/><path d="M68.041,78.737l0,461.992l227.905,-0l-0,-57.749l56.976,-0l0,-57.749l56.976,-0l0,-230.996l-56.976,-0l0,-57.749l-56.976,-0l-0,-57.749l-227.905,0Zm113.464,57.749l-0,346.494l57.465,-0l-0,-57.749l56.976,-0l-0,-230.996l-56.976,-0l-0,-57.749l-57.465,-0Z" style="fill:#4d2dff;"/><path d="M457.511,194.235l-0,288.745l56.976,-0l0,57.749l170.929,-0l-0,-57.749l57.465,-0l0,-57.749l-114.442,-0l0,31.124l-56.976,0l0,-31.124l-56.976,-0l0,-57.749l227.905,-0l-0,-172.024l-56.976,0l-0,-58.972l-170.929,-0l0,57.749l-56.976,-0Zm56.976,57.749l0,57.749l170.929,-0l-0,-57.749l-170.929,-0Z" style="fill:#4d2dff;"/></g></svg>