<?xml version="1.0" encoding="UTF-8" standalone="no"?><!DOCTYPE svg PUBLIC "-//W3C//DTD SVG 1.1//EN" "http://www.w3.org/Graphics/SVG/1.1/DTD/svg11.dtd"><svg width="100%" height="100%" viewBox="0 0 692 692" version="1.1" xmlns="http://www.w3.org/2000/svg" xmlns:xlink="http://www.w3.org/1999/xlink" xml:space="preserve" xmlns:serif="http://www.serif.com/" style="fill-rule:evenodd;clip-rule:evenodd;stroke-linejoin:round;stroke-miterlimit:2;"><rect id="Artboard2" x="0" y="0" width="691.04" height="691.04" style="fill:none;"/><clipPath id="_clip1"><rect x="0" y="0" width="691.04" height="691.04"/></clipPath><g clip-path="url(#_clip1)"><rect x="0" y="-47.82" width="709.342" height="767.204" style="fill:#e6e6e6;"/><g><path d="M65.076,168.596l0,353.848l218.196,0l0,-44.231l43.639,0l0,-265.386l-43.639,-0l0,-44.231l-218.196,-0Zm86.904,88.462l0,176.924l44.014,0l-0,-44.231l56.696,0l-0,-88.462l-56.696,-0l-0,-44.231l-44.014,-0Z" style="fill:#2000d5;"/><path d="M65.076,168.596l0,353.848l174.557,0l0,-44.231l43.639,0l0,-44.231l43.639,0l0,-176.924l-43.639,-0l0,-44.231l-43.639,-0l0,-44.231l-174.557,-0Zm86.904,44.231l0,265.386l44.014,0l-0,-44.231l43.639,0l0,-176.924l-43.639,-0l-0,-44.231l-44.014,-0Z" style="fill:#4d2dff;"/><path d="M363.379,257.058l-0,221.155l43.639,0l0,44.231l174.557,0l0.375,-22.115l44.014,-0l-0.375,-66.347l-131.293,0l0,23.839l-43.639,-0l0,-68.07l174.932,0l-0,-131.756l-44.014,-0l0.375,-27.649l-44.014,0l-0,-17.519l-130.918,-0l0,44.231l-43.639,-0Zm87.278,44.231l0,44.231l87.279,0l-0,-44.231l-87.279,-0Z" style="fill:#2000d5;"/><path d="M363.379,257.058l-0,221.155l43.639,0l0,44.231l130.918,0l-0,-44.231l44.014,0l-0,-44.231l-87.654,0l0,23.839l-43.639,-0l0,-23.839l-43.639,0l0,-44.231l174.557,0l-0,-131.756l-43.639,-0l-0,-45.168l-130.918,-0l0,44.231l-43.639,-0Zm43.639,44.231l0,44.231l130.918,0l-0,-44.231l-130.918,-0Z" style="fill:#4d2dff;"/></g></g></svg>