<?xml version="1.0" encoding="UTF-8" standalone="no"?><!DOCTYPE svg PUBLIC "-//W3C//DTD SVG 1.1//EN" "http://www.w3.org/Graphics/SVG/1.1/DTD/svg11.dtd"><svg width="100%" height="100%" viewBox="0 0 692 437" version="1.1" xmlns="http://www.w3.org/2000/svg" xmlns:xlink="http://www.w3.org/1999/xlink" xml:space="preserve" xmlns:serif="http://www.serif.com/" style="fill-rule:evenodd;clip-rule:evenodd;stroke-linejoin:round;stroke-miterlimit:2;"><rect id="Artboard2" x="0" y="0" width="691.04" height="436.477" style="fill:none;"/><clipPath id="_clip1"><rect x="0" y="0" width="691.04" height="436.477"/></clipPath><g clip-path="url(#_clip1)"><g><path d="M0,0l0,436.477l268.828,-0l-0,-54.56l53.765,0l0,-327.357l-53.765,-0l-0,-54.56l-268.828,0Zm107.07,109.119l-0,218.239l54.227,-0l-0,-54.56l69.852,0l-0,-109.119l-69.852,-0l-0,-54.56l-54.227,0Z" style="fill:#2000d5;"/><path d="M0,0l0,436.477l215.062,-0l0,-54.56l53.766,0l-0,-54.559l53.765,-0l0,-218.239l-53.765,0l-0,-54.559l-53.766,-0l0,-54.56l-215.062,0Zm107.07,54.56l-0,327.357l54.227,0l-0,-54.559l53.765,-0l0,-218.239l-53.765,0l-0,-54.559l-54.227,-0Z" style="fill:#4d2dff;"/><path d="M367.523,109.119l-0,272.798l53.766,0l-0,54.56l215.062,-0l0.462,-27.28l54.227,0l-0.462,-81.839l-161.758,-0l-0,29.405l-53.766,-0l0,-83.965l215.524,0l0,-162.523l-54.227,-0l0.462,-34.105l-54.228,0l0,-21.61l-161.296,-0l-0,54.559l-53.766,0Zm107.531,54.56l0,54.559l107.531,0l0,-54.559l-107.531,-0Z" style="fill:#2000d5;"/><path d="M367.523,109.119l-0,272.798l53.766,0l-0,54.56l161.296,-0l0,-54.56l54.228,0l-0,-54.559l-107.993,-0l-0,29.405l-53.766,-0l0,-29.405l-53.765,-0l-0,-54.56l215.062,0l-0,-162.523l-53.766,-0l0,-55.715l-161.296,-0l-0,54.559l-53.766,0Zm53.766,54.56l-0,54.559l161.296,0l0,-54.559l-161.296,-0Z" style="fill:#4d2dff;"/></g></g></svg>